<?xml version="1.0" encoding="utf-8"?>
<!-- Svg Vector Icons : http://www.onlinewebfonts.com/icon -->
<!DOCTYPE svg PUBLIC "-//W3C//DTD SVG 1.1//EN" "http://www.w3.org/Graphics/SVG/1.1/DTD/svg11.dtd">
<svg version="1.1" xmlns="http://www.w3.org/2000/svg" xmlns:xlink="http://www.w3.org/1999/xlink" x="0px" y="0px" viewBox="0 0 1000 1000" enable-background="new 0 0 1000 1000" xml:space="preserve">
<metadata> Svg Vector Icons : http://www.onlinewebfonts.com/icon </metadata>
<g><g transform="translate(0.000000,512.000000) scale(0.100000,-0.100000)"><path d="M4796.8,4997.5c-281.8-80.5-494.6-322.1-536.8-617.3c-26.8-182.1-24.9-4041.4,1.9-4204.3c40.3-249.2,228.1-488.9,454.4-577.1c86.3-36.4,147.6-44.1,291.4-46c168.7,0,193.6,5.8,310.6,63.3c161.1,78.6,320.2,245.4,383.4,400.7l44.1,111.2l5.7,2087.8c3.8,1380.4-1.9,2124.2-15.3,2195.2c-44.1,241.6-233.9,473.5-454.4,557.9C5140,5024.4,4934.9,5035.9,4796.8,4997.5z"/><path d="M6848.2,2463v-880l107.3-103.5c441-429.4,728.5-996.9,814.8-1608.5c32.6-228.2,11.5-768.8-38.4-979.7C7469.4-2234,6597.1-3064.1,5458.2-3269.3c-235.8-42.2-671-40.3-920.2,1.9c-1163.7,207.1-2066.7,1100.4-2283.3,2264.2c-51.8,278-47.9,753.4,7.7,1019.9c109.3,511.9,337.4,956.7,703.6,1370.8l163,186v872.3c0,481.2-7.7,874.2-15.3,874.2c-26.8,0-352.8-193.6-523.4-308.7C1581.8,2321.2,910.8,1216.9,761.2,3.3c-159.1-1303.7,289.5-2599.7,1227-3537.2c653.8-653.8,1459-1060.2,2396.5-1211.7c295.2-46,931.7-46,1236.6,0c452.5,70.9,841.7,193.6,1255.8,395C8157.6-3723.7,9028-2525.4,9237-1099.1c44.1,304.8,44.1,858.9,1.9,1161.8c-134.2,926-529.2,1733.1-1171.4,2392.6c-325.9,333.6-671,596.2-1050.6,797.5l-168.7,90.1V2463z"/></g></g>
</svg>